<svg xmlns="http://www.w3.org/2000/svg" viewBox="0 0 48 48"><path d="M 8.5 11 C 5.4802259 11 3 13.480226 3 16.5 L 3 31.5 C 3 34.519774 5.4802259 37 8.5 37 L 39.5 37 C 42.519774 37 45 34.519774 45 31.5 L 45 16.5 C 45 13.480226 42.519774 11 39.5 11 L 8.5 11 z M 8.5 14 L 39.5 14 C 40.898226 14 42 15.101774 42 16.5 L 42 31.5 C 42 32.898226 40.898226 34 39.5 34 L 8.5 34 C 7.1017741 34 6 32.898226 6 31.5 L 6 16.5 C 6 15.101774 7.1017741 14 8.5 14 z M 13.375 17.042969 C 13.257547 17.052859 13.139641 17.076984 13.025391 17.115234 L 10.025391 18.115234 C 9.2393906 18.377234 8.8141719 19.225719 9.0761719 20.011719 C 9.3381719 20.797719 10.190609 21.225938 10.974609 20.960938 L 12 20.619141 L 12 29.537109 C 12 30.366109 12.671 31.037109 13.5 31.037109 C 14.329 31.037109 15 30.366109 15 29.537109 L 15 18.537109 C 15 18.055109 14.767953 17.602313 14.376953 17.320312 C 14.082953 17.108812 13.727359 17.013297 13.375 17.042969 z M 18.5 28 A 1.5 1.5 0 0 0 18.5 31 A 1.5 1.5 0 0 0 18.5 28 z M 23.5 28 A 1.5 1.5 0 0 0 23.5 31 A 1.5 1.5 0 0 0 23.5 28 z"/></svg>