<svg xmlns="http://www.w3.org/2000/svg" viewBox="0 0 64 64"><path fill="#fbd" d="M46.884,17.328c1.77,2.443,3.771,4.728,5.798,6.99L55.5,21.5c3.038-3.038,3.038-7.962,0-11l-2-2 c-3.038-3.038-7.962-3.038-11,0l-1.621,1.621C43.311,12.1,45.046,14.791,46.884,17.328z"/><path fill="#f7a1c8" d="M52.687,16c0,0.801-0.312,1.554-0.879,2.121c-0.976,0.975-1.464,2.254-1.465,3.533 c0.769,0.896,1.55,1.783,2.339,2.664L55.5,21.5c2.796-2.796,3.011-7.187,0.66-10.237C54.15,11.911,52.687,13.775,52.687,16z"/><path fill="#efd8be" d="M9.861,41.139L6,56.75C6,57.44,6.56,58,7.25,58l15.611-3.861L9.861,41.139z"/><path fill="#8d6c9f" d="M7,52l-1,5.423C6,57.742,6.258,58,6.577,58L12,57L7,52z"/><path fill="#72caaf" d="M47.099,19.278c-2.239-2.856-4.061-6.184-6.92-8.457l-28.04,28.04 c-0.493,0.493-2.278,2.278-2.278,2.278l13,13c0,0,1.696-1.696,2.278-2.278l26.845-26.845 C50.307,23.139,48.646,21.251,47.099,19.278z"/><path fill="#97e0bb" d="M40.922,16.007c-1.42-1.589-0.252-2.689-1.589-4.34L9.861,41.139L13,44L40.922,16.007z"/><path fill="#ced9ed" d="M55.293,24.707l-6.586,6.586c-0.391,0.391-1.024,0.391-1.414,0L32.707,16.707 c-0.391-0.391-0.391-1.024,0-1.414l6.586-6.586c0.391-0.391,1.024-0.391,1.414,0l14.586,14.586 C55.683,23.683,55.683,24.317,55.293,24.707z"/><path fill="#b5c4e0" d="M55.293,24.707l-6.586,6.586c-0.391,0.391-0.865,0.549-1.061,0.354l-7.293-7.293 c-0.195-0.195-0.037-0.67,0.354-1.061l6.586-6.586c0.391-0.391,0.865-0.549,1.061-0.354l7.293,7.293 C55.842,23.842,55.683,24.317,55.293,24.707z"/><path fill="#5dbc9d" d="M47,30L23.977,53.023c-0.391,0.391-0.865,0.549-1.061,0.354L20,51l24.207-24.207L47,30z"/><path fill="#c2cde7" d="M50.793,20.207l-6.586,6.586c-0.391,0.391-0.846,0.569-1.016,0.398l-6.381-6.381 c-0.171-0.171,0.007-0.626,0.398-1.016l6.586-6.586c0.391-0.391,0.846-0.569,1.016-0.398l6.381,6.381 C51.361,19.361,51.183,19.817,50.793,20.207z"/><path fill="#8d6c9f" d="M7 59c-1.103 0-2-.897-2-2 0-.079.01-.158.028-.234C8.906 40.679 9.035 40.55 9.293 40.293l23.542-23.542 1.414 1.414L10.865 41.549c-.412 1.38-2.5 9.911-3.827 15.411l15.45-3.862L45.71 29.876l1.414 1.414L23.707 54.707c-.128.128-.289.219-.465.263l-16 4C7.163 58.99 7.082 59 7 59zM55.207 23.207l-1.414-1.414.843-.843c1.322-1.322 2.051-3.08 2.051-4.95s-.729-3.627-2.051-4.95L52.95 9.364c-2.729-2.729-7.17-2.729-9.9 0l-.8.801-1.416-1.413.801-.802c3.51-3.509 9.22-3.509 12.729 0l1.686 1.687c1.7 1.7 2.637 3.959 2.637 6.364 0 2.404-.937 4.664-2.637 6.364L55.207 23.207z"/><path fill="#8d6c9f" d="M30.359 27.651c-.256 0-.512-.098-.707-.293-.391-.391-.391-1.024 0-1.414l3.136-3.135c.391-.391 1.023-.391 1.414 0s.391 1.024 0 1.414l-3.136 3.135C30.871 27.553 30.615 27.651 30.359 27.651zM16.505 41.505c-.256 0-.512-.098-.707-.293-.391-.391-.391-1.023 0-1.414l10.979-10.979c.391-.391 1.023-.391 1.414 0s.391 1.023 0 1.414L17.212 41.212C17.017 41.408 16.761 41.505 16.505 41.505zM48 32.585c-.512 0-1.024-.195-1.414-.585L32 17.414c-.78-.78-.78-2.048 0-2.828L38.586 8c.779-.78 2.049-.78 2.828 0L56 22.586c.78.78.78 2.048 0 2.828L49.414 32C49.024 32.39 48.512 32.585 48 32.585zM40 9.414L33.414 16 48 30.586l6.587-6.587L40 9.414z"/><path fill="#8d6c9f" d="M16 37.948H18V57.053H16z" transform="rotate(-47.119 17 47.5)"/><path fill="#8d6c9f" d="M39.508 18.421c-.256 0-.512-.098-.707-.293-.391-.391-.391-1.023 0-1.414l1.414-1.414c.391-.391 1.023-.391 1.414 0s.391 1.023 0 1.414l-1.414 1.414C40.02 18.324 39.764 18.421 39.508 18.421zM43.043 21.957c-.256 0-.512-.098-.707-.293-.391-.391-.391-1.023 0-1.414l1.414-1.414c.391-.391 1.023-.391 1.414 0s.391 1.023 0 1.414l-1.414 1.414C43.555 21.859 43.299 21.957 43.043 21.957zM46.578 25.493c-.256 0-.512-.098-.707-.293-.391-.391-.391-1.023 0-1.414l1.414-1.414c.391-.391 1.023-.391 1.414 0s.391 1.023 0 1.414L47.285 25.2C47.09 25.395 46.834 25.493 46.578 25.493z"/></svg>