<svg xmlns="http://www.w3.org/2000/svg" data-name="Layer 1" viewBox="0 0 64 64"><path fill="#ed7899" d="M21.11,13.07V50.93a2,2,0,0,0,3.22,1.58L48.84,33.58a2,2,0,0,0,0-3.17L24.33,11.49A2,2,0,0,0,21.11,13.07Z"/><path fill="#f283a5" d="M21,11h2a3,3,0,0,1,3,3V50a3,3,0,0,1-3,3H21a0,0,0,0,1,0,0V11A0,0,0,0,1,21,11Z"/><path fill="#8d6c9f" d="M49.35,29.63,24.83,10.7A3,3,0,0,0,20,13.07V50.93a3,3,0,0,0,4.83,2.37L49.35,34.37a3,3,0,0,0,0-4.75Zm-1.22,3.17L23.61,51.72A1,1,0,0,1,22,50.93V13.07a1,1,0,0,1,.56-.9,1,1,0,0,1,.45-.11,1,1,0,0,1,.61.21L48.13,31.21a1,1,0,0,1,0,1.58Z"/><path fill="#8d6c9f" d="M26.89 41h-2a1 1 0 0 0 0 2h2a1 1 0 0 0 0-2zM26.89 46h-2a1 1 0 0 0 0 2h2a1 1 0 0 0 0-2zM26.89 36h-2a1 1 0 0 0 0 2h2a1 1 0 0 0 0-2zM26.89 31h-2a1 1 0 0 0 0 2h2a1 1 0 0 0 0-2zM26.89 26h-2a1 1 0 0 0 0 2h2a1 1 0 0 0 0-2zM26.89 21h-2a1 1 0 0 0 0 2h2a1 1 0 0 0 0-2zM26.89 16h-2a1 1 0 0 0 0 2h2a1 1 0 0 0 0-2z"/></svg>