<svg xmlns="http://www.w3.org/2000/svg" viewBox="0 0 48 48"><path d="M 21.5 3 A 1.50015 1.50015 0 1 0 21.5 6 L 22.5 6 L 22.5 8.0761719 C 13.276989 8.842722 6 16.582823 6 26 C 6 35.923357 14.076636 44 24 44 C 33.923364 44 42 35.923357 42 26 C 42 21.577219 40.3896 17.528171 37.732422 14.390625 L 39.556641 12.564453 A 1.50015 1.50015 0 0 0 38.466797 9.9902344 A 1.50015 1.50015 0 0 0 37.435547 10.443359 L 35.609375 12.267578 C 32.830917 9.9145087 29.335848 8.3949799 25.5 8.0761719 L 25.5 6 L 26.5 6 A 1.50015 1.50015 0 1 0 26.5 3 L 21.5 3 z M 23.822266 11.009766 A 1.50015 1.50015 0 0 0 24.185547 11.009766 C 28.220081 11.058889 31.863047 12.68515 34.527344 15.308594 A 1.5012209 1.5012209 0 0 0 34.685547 15.466797 C 37.353026 18.172834 39 21.887902 39 26 C 39 34.302039 32.302045 41 24 41 C 15.697955 41 9 34.302039 9 26 C 9 17.757971 15.603517 11.105631 23.822266 11.009766 z M 30.470703 17.986328 A 1.50015 1.50015 0 0 0 29.439453 18.439453 L 24.773438 23.105469 A 3 3 0 0 0 24 23 A 3 3 0 0 0 24 29 A 3 3 0 0 0 26.896484 25.224609 L 31.560547 20.560547 A 1.50015 1.50015 0 0 0 30.470703 17.986328 z"/></svg>