<svg xmlns="http://www.w3.org/2000/svg" viewBox="0 0 64 64"><path fill="#becde8" d="M13 19L51 19 48 54 45 57 19 57 16 54z"/><path fill="#cad8ed" d="M25 57L18 57 15 51 13 19 22 19z"/><path fill="#afc4e1" d="M50.71 22L51 19 13 19 13.29 22z"/><path fill="#afc4e1" d="M38 19L37 57 45 57 48 54 51 19z"/><path fill="#a8b7d1" d="M53,19H11c-1.105,0-2-0.895-2-2v-6c0-1.105,0.895-2,2-2h42c1.105,0,2,0.895,2,2v6 C55,18.105,54.105,19,53,19z"/><path fill="#986ca1" d="M19 12c-.553 0-1 .448-1 1v2c0 .552.447 1 1 1s1-.448 1-1v-2C20 12.448 19.553 12 19 12zM14 12c-.553 0-1 .448-1 1v2c0 .552.447 1 1 1s1-.448 1-1v-2C15 12.448 14.553 12 14 12zM24 12c-.553 0-1 .448-1 1v2c0 .552.447 1 1 1s1-.448 1-1v-2C25 12.448 24.553 12 24 12zM29 12c-.553 0-1 .448-1 1v2c0 .552.447 1 1 1s1-.448 1-1v-2C30 12.448 29.553 12 29 12zM35 12c-.553 0-1 .448-1 1v2c0 .552.447 1 1 1s1-.448 1-1v-2C36 12.448 35.553 12 35 12zM40 12c-.553 0-1 .448-1 1v2c0 .552.447 1 1 1s1-.448 1-1v-2C41 12.448 40.553 12 40 12zM45 12c-.553 0-1 .448-1 1v2c0 .552.447 1 1 1s1-.448 1-1v-2C46 12.448 45.553 12 45 12zM50 12c-.553 0-1 .448-1 1v2c0 .552.447 1 1 1s1-.448 1-1v-2C51 12.448 50.553 12 50 12z"/><path fill="#986ca1" d="M53,8H41.535l-3.109-4.664C37.868,2.5,36.935,2,35.93,2H28.07c-1.005,0-1.938,0.5-2.496,1.336 L22.465,8H11c-1.654,0-3,1.346-3,3v6c0,1.654,1.346,3,3,3h0.1l3.529,33.523C14.896,56.076,17.034,58,19.601,58h24.799 c2.566,0,4.704-1.924,4.972-4.477L52.9,20H53c1.654,0,3-1.346,3-3v-6C56,9.346,54.654,8,53,8z M27.238,4.445 C27.424,4.167,27.735,4,28.07,4h7.859c0.335,0,0.646,0.167,0.832,0.445L39.132,8H24.868L27.238,4.445z M47.383,53.314 C47.222,54.846,45.939,56,44.399,56H19.601c-1.54,0-2.822-1.154-2.983-2.686L13.11,20H50.89L47.383,53.314z M54,17 c0,0.551-0.448,1-1,1h-1H12c-0.022,0-0.041,0.011-0.063,0.013C11.916,18.011,11.897,18,11.875,18H11c-0.552,0-1-0.449-1-1v-6 c0-0.551,0.448-1,1-1h10.132h21.736H53c0.552,0,1,0.449,1,1V17z"/><path fill="#986ca1" d="M43 52h-4c-.553 0-1 .448-1 1s.447 1 1 1h4c.553 0 1-.448 1-1S43.553 52 43 52zM35 52H21c-.553 0-1 .448-1 1s.447 1 1 1h14c.553 0 1-.448 1-1S35.553 52 35 52zM22.808 43.678c.195.195.451.293.707.293s.512-.098.707-.293L32 35.899l7.778 7.778c.195.195.451.293.707.293s.512-.098.707-.293c.391-.391.391-1.023 0-1.414l-7.778-7.778 7.778-7.778c.391-.391.391-1.023 0-1.414s-1.023-.391-1.414 0L32 33.071l-7.778-7.778c-.391-.391-1.023-.391-1.414 0s-.391 1.023 0 1.414l7.778 7.778-7.778 7.778C22.417 42.654 22.417 43.287 22.808 43.678z"/></svg>