<svg xmlns="http://www.w3.org/2000/svg" viewBox="0 0 64 64"><path fill="#72caaf" d="M51,57H13c-3.314,0-6-2.686-6-6V13c0-3.314,2.686-6,6-6h38c3.314,0,6,2.686,6,6v38 C57,54.314,54.314,57,51,57z"/><path fill="#97e0bb" d="M21.836 57L43.167 57 57 43.167 57 21.833zM54.13 7.88L7.88 54.13c-.26-.42-.46-.88-.61-1.36C7.09 52.21 7 51.62 7 51v-.03L50.96 7H51C52.15 7 53.22 7.32 54.13 7.88zM57 13v4.19L17.19 57H13c-1.23 0-2.38-.38-3.33-1.01L55.99 9.67C56.63 10.62 57 11.77 57 13z"/><path fill="#fff" d="M18 14H32V44H18z"/><path fill="#fff" d="M39.5 14A7.5 7.5 0 1 0 39.5 29 7.5 7.5 0 1 0 39.5 14zM39.5 29A7.5 7.5 0 1 0 39.5 44 7.5 7.5 0 1 0 39.5 29z"/><path fill="#fff8f8" d="M49.995 41L51.053 42.937 53 43.995 51.053 45.053 49.995 47 48.937 45.053 47 43.995 48.937 42.937zM51.505 13L52.035 13.975 53 14.505 52.035 15.025 51.505 16 50.975 15.025 50 14.505 50.975 13.975zM12.5 32L13.378 33.612 15 34.5 13.378 35.378 12.5 37 11.612 35.378 10 34.5 11.612 33.612z"/><path fill="#5dbc9d" d="M56.73,52.77C55.98,55.21,53.7,57,51,57H13c-2.7,0-4.98-1.79-5.73-4.23 c0.15-0.33,0.36-0.64,0.61-0.89C8.42,51.34,9.17,51,10,51h44C55.22,51,56.27,51.73,56.73,52.77z"/><path fill="#8d6c9f" d="M32,45H18c-0.553,0-1-0.447-1-1V14c0-0.553,0.447-1,1-1h14c0.553,0,1,0.447,1,1v30 C33,44.553,32.553,45,32,45z M19,43h12V15H19V43z"/><path fill="#8d6c9f" d="M39.5,30c-4.687,0-8.5-3.813-8.5-8.5s3.813-8.5,8.5-8.5s8.5,3.813,8.5,8.5S44.187,30,39.5,30z M39.5,15c-3.584,0-6.5,2.916-6.5,6.5s2.916,6.5,6.5,6.5s6.5-2.916,6.5-6.5S43.084,15,39.5,15z"/><path fill="#8d6c9f" d="M39.5 45c-4.687 0-8.5-3.813-8.5-8.5s3.813-8.5 8.5-8.5 8.5 3.813 8.5 8.5S44.187 45 39.5 45zM39.5 30c-3.584 0-6.5 2.916-6.5 6.5s2.916 6.5 6.5 6.5 6.5-2.916 6.5-6.5S43.084 30 39.5 30zM27 49c-.552 0-1 .447-1 1v2c0 .553.448 1 1 1s1-.447 1-1v-2C28 49.447 27.552 49 27 49zM32 49c-.552 0-1 .447-1 1v2c0 .553.448 1 1 1 .552 0 1-.447 1-1v-2C33 49.447 32.552 49 32 49zM37 49c-.552 0-1 .447-1 1v2c0 .553.448 1 1 1s1-.447 1-1v-2C38 49.447 37.552 49 37 49zM42 49c-.552 0-1 .447-1 1v2c0 .553.448 1 1 1s1-.447 1-1v-2C43 49.447 42.552 49 42 49zM47 49c-.552 0-1 .447-1 1v2c0 .553.448 1 1 1s1-.447 1-1v-2C48 49.447 47.552 49 47 49zM52 49c-.552 0-1 .447-1 1v2c0 .553.448 1 1 1s1-.447 1-1v-2C53 49.447 52.552 49 52 49zM22 49c-.552 0-1 .447-1 1v2c0 .553.448 1 1 1s1-.447 1-1v-2C23 49.447 22.552 49 22 49zM17 49c-.552 0-1 .447-1 1v2c0 .553.448 1 1 1s1-.447 1-1v-2C18 49.447 17.552 49 17 49zM12 49c-.552 0-1 .447-1 1v2c0 .553.448 1 1 1s1-.447 1-1v-2C13 49.447 12.552 49 12 49z"/><path fill="#8d6c9f" d="M51,58H13c-3.859,0-7-3.141-7-7V13c0-3.859,3.141-7,7-7h38c3.859,0,7,3.141,7,7v38 C58,54.859,54.859,58,51,58z M13,8c-2.757,0-5,2.243-5,5v38c0,2.757,2.243,5,5,5h38c2.757,0,5-2.243,5-5V13c0-2.757-2.243-5-5-5H13z"/></svg>